<svg width="1280" height="720" xmlns="http://www.w3.org/2000/svg" xmlns:xlink="http://www.w3.org/1999/xlink" overflow="hidden"><defs><clipPath id="clip0"><rect x="0" y="0" width="1280" height="720"/></clipPath></defs><g clip-path="url(#clip0)"><rect x="0" y="0" width="1280" height="720" fill="#141618"/><path d="M29 29.8688C29 23.8661 33.8661 19 39.8688 19L1248.13 19C1254.13 19 1259 23.8661 1259 29.8688L1259 498.131C1259 504.134 1254.13 509 1248.13 509L39.8688 509C33.8661 509 29 504.134 29 498.131Z" fill="#1C2025" fill-rule="evenodd"/><path d="M33 549.709C33 544.899 36.899 541 41.7086 541L300.291 541C305.101 541 309 544.899 309 549.709L309 686.291C309 691.101 305.101 695 300.291 695L41.7086 695C36.899 695 33 691.101 33 686.291Z" fill="#1C2025" fill-rule="evenodd"/><path d="M350 549.709C350 544.899 353.899 541 358.709 541L616.291 541C621.101 541 625 544.899 625 549.709L625 686.291C625 691.101 621.101 695 616.291 695L358.709 695C353.899 695 350 691.101 350 686.291Z" fill="#1C2025" fill-rule="evenodd"/><path d="M984 549.709C984 544.899 987.899 541 992.709 541L1250.29 541C1255.1 541 1259 544.899 1259 549.709L1259 686.291C1259 691.101 1255.1 695 1250.29 695L992.709 695C987.899 695 984 691.101 984 686.291Z" fill="#1C2025" fill-rule="evenodd"/><path d="M667 549.709C667 544.899 670.899 541 675.709 541L933.291 541C938.101 541 942 544.899 942 549.709L942 686.291C942 691.101 938.101 695 933.291 695L675.709 695C670.899 695 667 691.101 667 686.291Z" fill="#1C2025" fill-rule="evenodd"/></g></svg>